HIERARCHY
ROOT Hips
{
    OFFSET 0.000000 0.000000 0.000000
    CHANNELS 6 Xposition Yposition Zposition Zrotation Xrotation Yrotation
    JOINT Spine
    {
        OFFSET -0.000000 7.246840 0.000000
        CHANNELS 3 Zrotation Xrotation Yrotation
        JOINT Spine1
        {
            OFFSET -0.000000 20.289354 0.000000
            CHANNELS 3 Zrotation Xrotation Yrotation
            JOINT Neck
            {
                OFFSET -0.000000 20.206032 1.836912
                CHANNELS 3 Zrotation Xrotation Yrotation
                JOINT Head
                {
                    OFFSET -0.000000 12.372654 -1.767522
                    CHANNELS 3 Zrotation Xrotation Yrotation
                    End Site
                    {
                        OFFSET -0.000000 22.094025 0.000000
                    }
                }
            }
            JOINT LeftShoulder
            {
                OFFSET 3.465871 17.201674 -0.568930
                CHANNELS 3 Zrotation Xrotation Yrotation
                JOINT LeftArm
                {
                    OFFSET 14.070313 0.000000 0.000000
                    CHANNELS 3 Zrotation Xrotation Yrotation
                    JOINT LeftForeArm
                    {
                        OFFSET 26.549477 0.000000 0.000000
                        CHANNELS 3 Zrotation Xrotation Yrotation
                        JOINT LeftHand
                        {
                            OFFSET 18.880413 0.000000 0.000000
                            CHANNELS 3 Zrotation Xrotation Yrotation
                            End Site
                            {
                                OFFSET 13.256415 0.000000 0.000000
                            }
                        }
                    }
                }
            }
            JOINT RightShoulder
            {
                OFFSET -3.526370 17.201674 -0.568930
                CHANNELS 3 Zrotation Xrotation Yrotation
                JOINT RightArm
                {
                    OFFSET -14.070313 0.000000 0.000000
                    CHANNELS 3 Zrotation Xrotation Yrotation
                    JOINT RightForeArm
                    {
                        OFFSET -26.549477 0.000000 0.000000
                        CHANNELS 3 Zrotation Xrotation Yrotation
                        JOINT RightHand
                        {
                            OFFSET -18.880413 0.000000 0.000000
                            CHANNELS 3 Zrotation Xrotation Yrotation
                            End Site
                            {
                                OFFSET -13.256415 0.000000 0.000000
                            }
                        }
                    }
                }
            }
        }
    }
    JOINT LeftUpLeg
    {
        OFFSET 8.837609 0.000000 0.000000
        CHANNELS 3 Zrotation Xrotation Yrotation
        JOINT LeftLeg
        {
            OFFSET -0.000000 -41.345005 0.000000
            CHANNELS 3 Zrotation Xrotation Yrotation
            JOINT LeftFoot
            {
                OFFSET -0.000000 -35.500874 0.000000
                CHANNELS 3 Zrotation Xrotation Yrotation
                JOINT LeftToeBase
                {
                    OFFSET -0.000000 -5.744446 13.256415
                    CHANNELS 3 Zrotation Xrotation Yrotation
                    End Site
                    {
                        OFFSET -0.000000 0.000000 3.535044
                    }
                }
            }
        }
    }
    JOINT RightUpLeg
    {
        OFFSET -8.837609 0.000000 0.000000
        CHANNELS 3 Zrotation Xrotation Yrotation
        JOINT RightLeg
        {
            OFFSET -0.000000 -41.345005 0.000000
            CHANNELS 3 Zrotation Xrotation Yrotation
            JOINT RightFoot
            {
                OFFSET -0.000000 -35.500874 0.000000
                CHANNELS 3 Zrotation Xrotation Yrotation
                JOINT RightToeBase
                {
                    OFFSET -0.000000 -5.744446 13.256415
                    CHANNELS 3 Zrotation Xrotation Yrotation
                    End Site
                    {
                        OFFSET -0.000000 0.000000 3.535044
                    }
                }
            }
        }
    }
}
MOTION
Frames:    10
Frame Time:    0.010000
4.223143    82.136520    -65.537521    3.546583    3.841813    -0.877493    -4.326462    -15.885262    -0.659861    0.748507    5.147230    -0.090707    1.398196    32.603531    -1.787509    0.909166    -9.284264    -1.431208    19.148115    1.136563    6.964599    -33.226257    11.439692    -13.742860    3.854882    -2.162342    -6.631644    -4.408969    -1.670672    -6.967383    -16.357433    0.765684    12.162420    17.418634    9.965090    10.033503    -2.212943    -8.970523    4.225509    4.415062    -8.402222    12.742825    -4.241449    5.427409    0.976718    -2.147709    -10.221148    -5.953446    4.872713    2.394250    -4.585698    -1.289670    -2.472396    1.832914    -7.604602    4.442101    1.096037    8.177165    -10.078987    2.783154    -2.047328    -0.047453    -9.807643    0.006759    -1.542376    -0.012325    
4.231349    82.138184    -65.536194    3.547395    3.832247    -0.882937    -4.309996    -15.869077    -0.656059    0.725154    5.143641    -0.087322    1.402439    32.606075    -1.787026    0.916884    -9.301904    -1.428148    19.153784    1.137168    6.962400    -33.209194    11.491848    -13.734423    3.863515    -2.176331    -6.632750    -4.422096    -1.682769    -6.982381    -16.361040    0.769244    12.167841    17.441206    9.940254    10.022024    -2.227765    -8.977306    4.243178    4.445799    -8.405446    12.724743    -4.251930    5.429212    0.976957    -2.166332    -10.193377    -5.831154    4.893035    2.344370    -4.689110    -1.282402    -2.442783    1.822248    -7.617409    4.424972    1.111840    8.175725    -10.014554    2.769797    -1.955353    -0.132872    -9.769645    0.052476    -1.564985    -0.095731    
4.238690    82.139221    -65.534767    3.545449    3.821933    -0.883554    -4.298729    -15.852129    -0.652033    0.707636    5.139861    -0.085573    1.417554    32.618748    -1.797232    0.918171    -9.330653    -1.435586    19.168301    1.142840    6.970730    -33.227116    11.470792    -13.749360    3.866304    -2.163862    -6.632626    -4.373724    -1.671077    -7.035368    -16.345318    0.801651    12.167804    17.425360    9.918553    10.026990    -2.224066    -8.967654    4.240432    4.428740    -8.397425    12.735571    -4.251581    5.431339    0.962616    -2.152825    -10.176935    -5.904368    4.891730    2.327507    -4.563007    -1.251344    -2.410500    1.777760    -7.631145    4.403140    1.149203    8.179885    -9.938966    2.762684    -1.913721    -0.209123    -9.825755    0.005419    -1.582889    -0.009886    
4.246482    82.141800    -65.532898    3.540901    3.809867    -0.878618    -4.286166    -15.836834    -0.651502    0.701237    5.149002    -0.087108    1.413296    32.623409    -1.800511    0.917143    -9.367799    -1.439592    19.158609    1.120572    6.968463    -33.217476    11.501333    -13.730041    3.870443    -2.190145    -6.648246    -4.364614    -1.696526    -7.051607    -16.346497    0.804839    12.163208    17.425716    9.920305    10.026640    -2.228191    -8.971379    4.245641    4.393847    -8.405170    12.724902    -4.251407    5.429558    0.925709    -2.159045    -10.145554    -5.876966    4.917358    2.340319    -4.652073    -1.323370    -2.480327    1.880899    -7.635011    4.384058    1.149209    8.159576    -9.866520    2.758953    -1.854982    -0.261629    -9.831834    -0.012267    -1.660729    0.022406    
4.255445    82.143509    -65.529526    3.540823    3.795496    -0.868994    -4.288392    -15.817194    -0.651062    0.704852    5.153551    -0.086931    1.395865    32.627407    -1.804800    0.951545    -9.399029    -1.438936    19.160542    1.125279    6.949863    -33.265896    11.177114    -13.690031    3.749003    -2.035881    -6.736029    -4.307514    -1.551019    -7.022149    -16.347752    0.818260    12.148736    17.423626    9.930558    10.030983    -2.244200    -8.952687    4.242949    4.364728    -8.389916    12.704458    -4.253462    5.424809    0.893449    -2.155749    -10.107249    -5.903552    4.898699    2.308283    -4.542706    -1.297641    -2.469589    1.844209    -7.648003    4.364671    1.153454    8.154665    -9.778590    2.743097    -1.746444    -0.361765    -9.789270    0.022375    -1.696911    -0.040877    
4.265387    82.146263    -65.525383    3.539701    3.778802    -0.849577    -4.277620    -15.797716    -0.657850    0.687111    5.163939    -0.095088    1.397604    32.634148    -1.801000    0.950796    -9.437225    -1.434457    19.147446    1.129143    6.963130    -33.216537    11.489164    -13.723677    3.862939    -2.211420    -6.692928    -4.357467    -1.717131    -7.051960    -16.341089    0.815839    12.155870    17.421745    9.971863    10.017907    -2.257463    -8.952745    4.241104    4.330437    -8.393397    12.702470    -4.258532    5.419988    0.878666    -2.178763    -10.044004    -5.808565    4.927114    2.264468    -4.658272    -1.288354    -2.495339    1.831308    -7.661482    4.349303    1.151512    8.146553    -9.691267    2.750717    -1.625937    -0.464715    -9.783760    0.068853    -1.740292    -0.125856    
4.278595    82.150803    -65.520378    3.546932    3.761277    -0.828187    -4.280989    -15.774277    -0.668001    0.679481    5.171597    -0.105614    1.379904    32.637405    -1.793846    0.974092    -9.469692    -1.424346    19.146875    1.153955    6.969416    -33.261246    11.162666    -13.714889    3.743901    -2.049413    -6.758806    -4.293622    -1.565519    -7.007051    -16.334251    0.822500    12.159089    17.410419    9.966827    10.008223    -2.258580    -8.934797    4.247832    4.324919    -8.375649    12.708238    -4.279059    5.411971    0.834890    -2.143103    -9.995934    -5.870216    4.882988    2.229677    -4.526404    -1.274630    -2.485974    1.811695    -7.688745    4.333749    1.139283    8.140817    -9.596581    2.784248    -1.736222    -0.500244    -9.888460    -0.101436    -1.867849    0.185685    
4.289366    82.154488    -65.514580    3.549245    3.735941    -0.807945    -4.292089    -15.741521    -0.675177    0.698572    5.180163    -0.113858    1.349913    32.633221    -1.795166    0.996328    -9.488511    -1.425570    19.099531    1.185690    6.974729    -33.221966    11.171268    -13.749660    3.747578    -2.052566    -6.747355    -4.311506    -1.568319    -6.991673    -16.354095    0.805479    12.166288    17.421549    10.000316    9.976534    -2.262235    -8.928927    4.259980    4.331473    -8.368977    12.700332    -4.138726    5.306991    0.229572    -2.360934    -9.678205    -5.745916    5.087813    2.071168    -4.040245    -1.246193    -2.485864    1.771279    -7.707158    4.321777    1.143337    8.132840    -9.488324    2.779947    -1.569248    -0.630316    -9.880301    -0.045378    -1.903452    0.083102    
4.301516    82.159714    -65.507393    3.551277    3.712475    -0.778101    -4.286184    -15.713362    -0.679638    0.670394    5.194945    -0.118680    1.388124    32.645947    -1.798014    0.975346    -9.546124    -1.426310    19.116400    1.180679    6.970691    -33.238163    11.179369    -13.761217    3.761316    -2.017695    -6.728042    -4.335967    -1.532424    -6.973678    -16.335695    0.819389    12.152750    17.416401    9.981250    9.970119    -2.273036    -8.931425    4.255399    4.391310    -8.363664    12.723706    -4.149107    5.296430    0.230642    -2.349792    -9.598928    -5.832595    5.056212    2.059279    -4.053054    -1.270467    -2.557856    1.806594    -7.727340    4.304783    1.150142    8.126241    -9.371591    2.745892    -1.465268    -0.751789    -9.868986    -0.038594    -2.221136    0.070933    
4.313165    82.165810    -65.498085    3.548963    3.679775    -0.747580    -4.283124    -15.668525    -0.684467    0.658345    5.195678    -0.125160    1.389696    32.627914    -1.813689    0.987927    -9.528492    -1.440005    19.119967    1.175162    6.963588    -33.247353    11.218019    -13.763558    3.770278    -2.038550    -6.720115    -4.321518    -1.553357    -6.988059    -16.337973    0.818089    12.154097    17.434149    9.998185    9.934198    -2.267950    -8.940117    4.275350    4.416146    -8.369874    12.711891    -4.149929    5.296921    0.222518    -2.345783    -9.521055    -5.904253    5.002061    2.013278    -3.965525    -1.244935    -2.564753    1.770367    -7.744750    4.300816    1.154802    8.124468    -9.263143    2.721397    -1.333699    -0.881935    -9.851279    0.007098    -2.254464    -0.013047    
